<?xml version="1.0" encoding="utf-8"?>
<!-- Generator: Adobe Illustrator 21.1.0, SVG Export Plug-In . SVG Version: 6.00 Build 0)  -->
<svg version="1.1" id="Capa_1" xmlns="http://www.w3.org/2000/svg" xmlns:xlink="http://www.w3.org/1999/xlink" x="0px" y="0px"
	 viewBox="0 0 44.6 44.6" style="enable-background:new 0 0 44.6 44.6;" xml:space="preserve">
<style type="text/css">
	.st0{fill:#FFFFFF;}
</style>
<g>
	<g>
		<ellipse class="st0" cx="8.7" cy="15.8" rx="2.5" ry="4.7"/>
		<path class="st0" d="M43.7,11.6L30.1,6.2c-0.2-0.1-0.4-0.1-0.5-0.1H15.8L2,0.1C1.6-0.1,1.1,0,0.7,0.2C0.2,0.5,0,1,0,1.5v30.9
			c0,0.6,0.3,1.1,0.9,1.3L14.9,40c0.2,0.1,0.4,0.1,0.6,0.1h13.9l13.3,4.5c0.2,0.1,0.3,0.1,0.5,0.1c0.3,0,0.6-0.1,0.9-0.3
			c0.4-0.3,0.6-0.7,0.6-1.2V12.9C44.6,12.3,44.3,11.8,43.7,11.6z M16.5,34.3h12.2v2.9H16.5V34.3z M24.5,21.7c-0.5-0.7-1.5-0.7-2,0
			l-4.6,6.7c-0.3,0.5-0.9,0.6-1.4,0.5V9.1h12.2v18.2L24.5,21.7z M2.9,3.7l11.6,5.1v18.7c0,0-1.7-1.4-2.3-1.8
			c-0.4-0.3-0.9-0.4-1.3-0.1c-0.5,0.3-2.1,1.1-2.1,1.1c-0.6,0.3-1.2,0.3-1.6-0.5c-0.7-1-2.3-0.6-2.3,0.7v1.8c0,0.5,0.3,0.9,0.7,1.1
			l9,4v2.9L2.9,31.4C2.9,31.4,2.9,3.7,2.9,3.7z M41.7,41.2l-11.1-3.7v-3l7.9,3c1,0.4,2-0.6,1.6-1.6l-2.8-7.3
			c-0.3-0.9-1.5-1.1-2.1-0.3l-2,2.4c-0.5,0.6-1.5,0.6-1.9,0l-0.6-0.9V9.6l11.1,4.4L41.7,41.2L41.7,41.2z"/>
	</g>
</g>
</svg>
